<svg xmlns="http://www.w3.org/2000/svg" width="48" height="48" viewBox="0 0 48 48">
  <rect width="48" height="48" rx="10" fill="#4f46e5"/>
  <g fill="#fff" transform="translate(9,9)">
    <path d="M8.6 27.4c-.8-.4-1.6-.8-2.4-1.2-.8-.4-1.5-.7-2.5-1.1.1-.2.2-.3.3-.5l.3-.5c1 .5 2 1 3 1.4s2 .8 3 1.1c.9.3 1.7.5 2.5.6.8.1 1.5.2 2.2.2 1.5 0 2.6-.3 3.4-.9s1.2-1.4 1.2-2.5c0-.7-.2-1.3-.5-1.8s-.9-.9-1.6-1.3c-.7-.4-1.6-.8-2.7-1.2-1.1-.4-2.4-1-4-1.7-1.3-.6-2.4-1.3-3.3-2.2s-1.6-1.9-2.1-3.1c-.5-1.2-.8-2.6-.8-4.2 0-1.4.3-2.7.8-3.9s1.3-2.2 2.3-3c1-.8 2.2-1.5 3.7-1.9 1.4-.4 3.1-.7 4.9-.7 1.2 0 2.4.1 3.6.3s2.3.5 3.3.9c1 .4 1.9.8 2.7 1.2.8.4 1.4.8 1.9 1.2l-1.1 1.9c-.4-.3-.9-.7-1.5-1.1s-1.3-.8-2.1-1.2c-.9-.4-1.8-.7-2.9-.9-1.1-.2-2.3-.4-3.6-.4-1.4 0-2.6.2-3.6.5-1 .3-1.8.8-2.5 1.4s-1.2 1.3-1.6 2.2c-.4.9-.6 1.9-.6 3.1 0 1.3.2 2.4.7 3.3s1.1 1.8 2 2.5c.9.7 2.1 1.4 3.6 2.1 1.5.7 3.3 1.5 5.3 2.6 1.3.7 2.4 1.5 3.3 2.4s1.6 1.9 2.1 3.1c.5 1.2.8 2.5.8 4.1 0 2.9-1 5.2-3.1 6.8s-5 2.5-8.7 2.5c-2.8 0-5.3-.5-7.5-1.6z"/>
    <path d="M28.5 15.1v-7.8c0-.4.2-.6.6-.6h.7c.4 0 .6.2.6.6v7.8c0 .4-.2.6-.6.6h-.7c-.4 0-.6-.2-.6-.6z"/>
  </g>
</svg>
